<?xml version="1.0" encoding="UTF-8" standalone="no"?>
<!DOCTYPE svg PUBLIC "-//W3C//DTD SVG 1.1//EN" "http://www.w3.org/Graphics/SVG/1.1/DTD/svg11.dtd">
<svg width="100%" height="100%" viewBox="0 0 100 100" version="1.1" xmlns="http://www.w3.org/2000/svg" xmlns:xlink="http://www.w3.org/1999/xlink" xml:space="preserve" xmlns:serif="http://www.serif.com/" style="fill-rule:evenodd;clip-rule:evenodd;stroke-linejoin:round;stroke-miterlimit:2;">
    <g transform="matrix(1.0101,0,0,1.01011,-0.186154,0.0869565)">
        <ellipse cx="49.66" cy="49.457" rx="49.524" ry="49.457" style="fill:rgb(253,95,87);"/>
    </g>
    <g transform="matrix(-0.603021,-0.603021,-0.658119,0.658119,115.936,46.1753)">
        <path d="M56,12.062C56,10.924 54.992,10 53.75,10L49.25,10C48.008,10 47,10.924 47,12.062L47,93.938C47,95.076 48.008,96 49.25,96L53.75,96C54.992,96 56,95.076 56,93.938L56,12.062Z" style="fill:rgb(194,55,48);"/>
    </g>
    <g transform="matrix(0.603021,-0.603021,0.658119,0.658119,-15.9359,46.1753)">
        <path d="M56,12.062C56,10.924 54.992,10 53.75,10L49.25,10C48.008,10 47,10.924 47,12.062L47,93.938C47,95.076 48.008,96 49.25,96L53.75,96C54.992,96 56,95.076 56,93.938L56,12.062Z" style="fill:rgb(194,55,48);"/>
    </g>
</svg>
